<svg width="198" height="224" viewBox="0 0 198 224" fill="none" xmlns="http://www.w3.org/2000/svg">
<path d="M68.4 55.7C68.4 55.7 62.5 43.9 56.1 48.9C54.9958 49.8259 54.1658 51.0363 53.7 52.4C52.1 57.2 49.2 70.3 66.4 68.7" fill="white"/>
<path d="M68.4001 55.7C67.4054 54.0123 66.232 52.4366 64.9001 51C63.6366 49.5625 61.9604 48.5497 60.1001 48.1C59.213 47.9774 58.3093 48.1164 57.5001 48.5C56.6934 48.9205 55.9793 49.4986 55.4001 50.2C54.8127 50.9437 54.3716 51.792 54.1001 52.7C53.82 53.5872 53.5864 54.4885 53.4001 55.4C52.9691 57.2673 52.8341 59.1908 53.0001 61.1C53.2326 62.9549 54.0771 64.6792 55.4001 66C56.8712 67.2586 58.6791 68.0583 60.6001 68.3C62.5141 68.6357 64.4581 68.7697 66.4001 68.7C64.4456 68.9832 62.463 69.0168 60.5001 68.8C58.4588 68.6286 56.5122 67.8639 54.9001 66.6C53.3401 65.2012 52.3444 63.281 52.1001 61.2C51.8494 59.1978 51.9509 57.1672 52.4001 55.2C52.6001 54.3 52.9001 53.3 53.2001 52.4C53.5197 51.3807 54.0286 50.4308 54.7001 49.6C55.3829 48.8313 56.1952 48.1883 57.1001 47.7C58.1075 47.2668 59.2171 47.1282 60.3001 47.3C62.2441 47.9027 63.9551 49.0899 65.2001 50.7C66.506 52.2009 67.5842 53.8855 68.4001 55.7Z" fill="black"/>
<path d="M58.3999 54.7C58.3999 54.7 63.3999 53.7 64.3999 61.7L58.3999 54.7Z" fill="white"/>
<path d="M58.3999 54.7C58.813 54.5204 59.2612 54.4362 59.7113 54.4535C60.1614 54.4708 60.6018 54.5892 60.9999 54.8C61.8739 55.1565 62.6345 55.7442 63.1999 56.5L63.7999 57.7C63.9648 58.123 64.0985 58.5575 64.1999 59C64.3078 59.426 64.3748 59.8613 64.3999 60.3V61.7C64.1999 61.3 64.0999 60.8 63.8999 60.4L63.4999 59.3C63.182 58.5248 62.7795 57.787 62.2999 57.1C61.888 56.4182 61.3192 55.8447 60.6408 55.4273C59.9624 55.0098 59.1941 54.7605 58.3999 54.7Z" fill="black"/>
<path d="M61.7 64.4C61.7 64.4 58.4 61.7 62.4 59.7L61.7 64.4Z" fill="white"/>
<path d="M61.7 64.4C61.1701 64.2156 60.7141 63.8649 60.4 63.4C60.2084 63.1638 60.0655 62.8919 59.9797 62.6001C59.8939 62.3083 59.8668 62.0023 59.9 61.7C60.0352 61.093 60.3917 60.5582 60.9 60.2L61.6 59.8H62.4L61.9 60.3L61.4 60.9C61.1524 61.2242 60.9814 61.6003 60.9 62C60.9317 62.86 61.2093 63.693 61.7 64.4Z" fill="black"/>
<path d="M129.5 55.7C129.5 55.7 135.3 43.9 141.7 48.9C142.869 49.7653 143.714 50.9977 144.1 52.4C145.7 57.2 148.6 70.3 131.5 68.7" fill="white"/>
<path d="M129.5 55.7C130.28 53.8889 131.325 52.2039 132.6 50.7C133.867 49.068 135.617 47.878 137.6 47.3C138.65 47.1364 139.726 47.2751 140.7 47.7C141.622 48.1616 142.439 48.8084 143.1 49.6C143.772 50.4308 144.28 51.3807 144.6 52.4C144.9 53.3 145.2 54.3 145.4 55.2C145.849 57.1672 145.951 59.1978 145.7 61.2C145.456 63.281 144.46 65.2012 142.9 66.6C141.316 67.846 139.406 68.6097 137.4 68.8C135.437 69.0179 133.454 68.9843 131.5 68.7C133.442 68.7661 135.386 68.6321 137.3 68.3C139.192 68.0626 140.969 67.2612 142.4 66C143.795 64.732 144.653 62.9794 144.8 61.1C144.966 59.1908 144.831 57.2673 144.4 55.4C144.214 54.4884 143.98 53.5872 143.7 52.7C143.429 51.792 142.987 50.9437 142.4 50.2C141.844 49.4759 141.124 48.8934 140.3 48.5C139.491 48.1164 138.587 47.9774 137.7 48.1C135.86 48.5306 134.21 49.5485 133 51C131.638 52.411 130.461 53.9905 129.5 55.7Z" fill="black"/>
<path d="M139.5 54.7C139.5 54.7 134.5 53.7 133.5 61.7L139.5 54.7Z" fill="white"/>
<path d="M139.5 54.7C138.688 54.7448 137.9 54.9867 137.203 55.4049C136.506 55.8231 135.922 56.405 135.5 57.1C135.016 57.7687 134.645 58.5118 134.4 59.3L133.9 60.4L133.5 61.7C133.417 61.2382 133.384 60.7689 133.4 60.3C133.5 59.9 133.5 59.5 133.6 59C133.7 58.5 133.9 58.2 134 57.7C134.196 57.2792 134.43 56.8775 134.7 56.5C135.204 55.7271 135.939 55.1324 136.8 54.8C137.216 54.5874 137.673 54.4683 138.139 54.4511C138.605 54.4338 139.07 54.5187 139.5 54.7Z" fill="black"/>
<path d="M136.2 64.4C136.2 64.4 139.5 61.7 135.5 59.7L136.2 64.4Z" fill="white"/>
<path d="M136.2 64.4C136.637 63.6376 136.878 62.7785 136.9 61.9C136.865 61.4867 136.688 61.0981 136.4 60.8L136 60.2L135.5 59.7H136.2L137 60.1C137.447 60.4955 137.762 61.0193 137.9 61.6C137.953 61.9027 137.935 62.2136 137.849 62.5084C137.762 62.8032 137.608 63.0741 137.4 63.3C137.147 63.8007 136.721 64.1919 136.2 64.4Z" fill="black"/>
<path d="M118 112.2V90.7C118 85.6609 115.998 80.8282 112.435 77.265C108.872 73.7018 104.039 71.7 99 71.7C93.9609 71.7 89.1282 73.7018 85.565 77.265C82.0018 80.8282 80 85.6609 80 90.7V112.2C79.9849 115.594 78.8347 118.884 76.7325 121.548C74.6302 124.212 71.697 126.096 68.4 126.9C49.5232 131.263 32.6819 141.894 20.6231 157.058C8.56429 172.223 1.99966 191.026 2 210.4C2.02611 213.389 3.22502 216.248 5.33855 218.361C7.45208 220.475 10.3111 221.674 13.3 221.7H184.7C187.689 221.674 190.548 220.475 192.661 218.361C194.775 216.248 195.974 213.389 196 210.4C196 191.026 189.436 172.223 177.377 157.058C165.318 141.894 148.477 131.263 129.6 126.9C126.303 126.096 123.37 124.212 121.268 121.548C119.165 118.884 118.015 115.594 118 112.2Z" fill="white"/>
<path d="M118 112.2V94C117.9 92.5 118 91 117.9 89.5C117.788 88.0094 117.52 86.5347 117.1 85.1C116.207 82.2014 114.629 79.5604 112.5 77.4C110.394 75.2294 107.783 73.6146 104.9 72.7C102.029 71.7743 98.9807 71.5346 96.0001 72C94.4817 72.2337 93.0017 72.671 91.6001 73.3C90.2479 73.8746 88.9717 74.6135 87.8001 75.5C86.5835 76.4017 85.476 77.442 84.5001 78.6C81.6555 82.1456 80.1036 86.5544 80.1001 91.1V109.2C80.1001 110.7 80.1001 112.2 80.0001 113.8C79.8352 115.31 79.4651 116.79 78.9001 118.2C77.6822 121.047 75.6237 123.455 73.0001 125.1C71.7173 125.943 70.2954 126.553 68.8001 126.9L64.5001 128.2C61.6159 128.971 58.7779 129.906 56.0001 131C54.5883 131.531 53.2179 132.166 51.9001 132.9L47.8001 134.8L43.9001 137.1L41.9001 138.2L40.1001 139.5L36.4001 142.1L32.9001 145L31.1001 146.4C30.6001 146.9 30.0001 147.4 29.5001 148L26.3001 151.1C25.2001 152.2 24.3001 153.4 23.2001 154.5C22.1001 155.6 21.2001 156.7 20.4001 157.9L17.7001 161.6L17.0001 162.5L16.4001 163.4L15.2001 165.4L14.0001 167.3L12.9001 169.2L10.9001 173.3C10.6001 173.9 10.2001 174.6 9.90009 175.3L9.00009 177.4L7.30009 181.6L6.00009 185.9L5.30009 188C5.10009 188.8 5.00009 189.5 4.80009 190.2L3.90009 194.6C3.71846 195.357 3.58487 196.126 3.50009 196.9L3.20009 199.1L2.90009 201.3C2.784 202.062 2.71719 202.83 2.70009 203.6L2.50009 208.1V212.5C2.79509 213.933 3.37303 215.293 4.20009 216.5C5.89797 218.924 8.48654 220.578 11.4001 221.1C12.8627 221.234 14.3329 221.268 15.8001 221.2H183.7C185.184 221.282 186.672 221.113 188.1 220.7C189.501 220.227 190.793 219.479 191.9 218.5C193.04 217.557 193.968 216.383 194.623 215.056C195.278 213.729 195.645 212.279 195.7 210.8C195.75 210.068 195.75 209.332 195.7 208.6V204C195.733 203.261 195.666 202.521 195.5 201.8L195 197.3L194.7 195.1L194.2 192.9L193.2 188.4C192.8 187 192.3 185.6 191.9 184.1C191.5 182.6 189.8 178.5 188.7 175.6L188.3 174.6L187.8 173.6L186.8 171.6L185.7 169.6C185.428 168.905 185.093 168.235 184.7 167.6L182.3 163.7L181.1 161.8L179.7 160L177 156.4L174 153L172.5 151.3L170.9 149.7L167.7 146.5L164.2 143.6C163 142.7 161.9 141.7 160.6 140.9L156.9 138.3C156.314 137.83 155.676 137.427 155 137.1L153 135.9L151.1 134.8L150.1 134.2L149.1 133.8L145 131.8C143.6 131.1 142.2 130.7 140.8 130.1L136.5 128.6L132.1 127.4L130 126.8L127.8 126.1C124.963 124.969 122.526 123.02 120.8 120.5C119.072 118.068 118.099 115.181 118 112.2ZM118 112.2C118 115.229 118.906 118.189 120.6 120.7C122.304 123.217 124.751 125.14 127.6 126.2L129.8 126.9L132 127.5L136.3 128.7L140.6 130.2C142 130.8 143.5 131.2 144.8 131.9L148.9 133.8L149.9 134.3L150.9 134.9L152.9 136L154.9 137.1L156.8 138.3L160.5 140.9C161.784 141.721 162.989 142.658 164.1 143.7L167.6 146.6L170.9 149.7L172.5 151.3L174 153L177 156.4C178 157.6 178.8 158.8 179.7 160L181.1 161.9C181.558 162.495 181.959 163.131 182.3 163.8L184.7 167.6C185.163 168.209 185.533 168.883 185.8 169.6L186.9 171.6L187.9 173.6L188.4 174.7L188.8 175.7C190.057 178.458 191.126 181.298 192 184.2C192.5 185.7 193 187.1 193.4 188.5L194.4 193L194.9 195.2L195.2 197.4L195.8 202C195.9 202.7 195.9 203.5 196 204.2V208.8C196.05 209.532 196.05 210.268 196 211C195.938 212.555 195.551 214.08 194.861 215.475C194.172 216.871 193.197 218.106 192 219.1C190.839 220.134 189.477 220.917 188 221.4L186.9 221.7L185.8 221.9H120.2L47.7001 222.1H15.9001C14.3639 222.181 12.8235 222.114 11.3001 221.9C8.96793 221.517 6.80844 220.431 5.11066 218.786C3.41287 217.142 2.25782 215.019 1.80009 212.7L1.6001 211.5V208.1L1.80009 203.5C1.81724 202.763 1.88405 202.028 2.00009 201.3L2.30009 199L2.6001 196.7C2.68501 195.959 2.81862 195.224 3.00009 194.5L4.00009 190.1C4.20009 189.3 4.30009 188.6 4.50009 187.8L5.20009 185.7L6.6001 181.3L8.30009 177.1L9.20009 175C9.45177 174.296 9.78753 173.624 10.2001 173L12.2001 168.9L13.4001 167L14.6001 165L15.8001 163.1L16.4001 162.1L17.1001 161.2L19.8001 157.6C20.6562 156.346 21.6271 155.174 22.7001 154.1L25.7001 150.7L29.0001 147.5L30.7001 146L32.4001 144.5L35.9001 141.7L39.7001 139.1L41.6001 137.8L43.5001 136.6L47.5001 134.4L51.6001 132.4C53.0001 131.8 54.3001 131.1 55.7001 130.6C57.1001 130.1 61.4001 128.4 64.3001 127.7L68.7001 126.5C70.1642 126.205 71.5568 125.628 72.8001 124.8C75.3341 123.151 77.3187 120.783 78.5001 118C79.1224 116.644 79.495 115.188 79.6001 113.7C79.7346 112.204 79.768 110.701 79.7001 109.2V91.1C79.6153 88.0564 80.2672 85.0375 81.6001 82.3C82.3153 80.9279 83.1519 79.6227 84.1001 78.4C85.1008 77.2658 86.2056 76.2279 87.4001 75.3C88.6422 74.4118 89.9848 73.6734 91.4001 73.1C92.767 72.4715 94.2139 72.034 95.7001 71.8C98.7155 71.3813 101.786 71.6201 104.7 72.5C107.612 73.4653 110.251 75.1108 112.4 77.3C114.508 79.4766 116.083 82.1123 117 85C117.412 86.4706 117.68 87.9776 117.8 89.5C117.9 91 117.8 92.5 117.8 94L118 112.2Z" fill="black"/>
<path d="M99.1001 16.7H99C80.9403 16.7 66.3 31.3403 66.3 49.4V70C66.3 88.0597 80.9403 102.7 99 102.7H99.1001C117.16 102.7 131.8 88.0597 131.8 70V49.4C131.8 31.3403 117.16 16.7 99.1001 16.7Z" fill="white"/>
<path d="M99.0001 16.7C104.17 16.7048 109.269 17.9026 113.9 20.2C118.495 22.5365 122.471 25.9293 125.5 30.1C126.258 31.1622 126.959 32.2637 127.6 33.4C127.959 33.9333 128.261 34.5031 128.5 35.1C128.807 35.6466 129.075 36.2148 129.3 36.8C130.32 39.1721 131.059 41.6558 131.5 44.2L131.8 46.2V48.1C131.9 49.4 131.8 50.7 131.9 52V67.4C131.9 68.7 132 69.9 131.9 71.2V73.2L131.6 75.1C131.241 77.6721 130.57 80.1907 129.6 82.6C129.375 83.2178 129.108 83.8192 128.8 84.4C128.561 84.9969 128.259 85.5667 127.9 86.1C127.259 87.2363 126.558 88.3378 125.8 89.4C122.743 93.6352 118.736 97.0945 114.1 99.5C109.437 101.928 104.257 103.195 99.0001 103.195C93.7429 103.195 88.5632 101.928 83.9001 99.5C79.264 97.0945 75.2567 93.6352 72.2001 89.4C71.4424 88.3378 70.7414 87.2363 70.1001 86.1C69.7409 85.5667 69.4392 84.9969 69.2001 84.4C68.8921 83.8192 68.6248 83.2178 68.4001 82.6C67.4306 80.1907 66.759 77.6721 66.4001 75.1L66.1001 73.2V71.2C66.0001 69.9 66.1001 68.7 66.1001 67.4V52C66.2001 50.7 66.1001 49.4 66.2001 48.1V46.2L66.5001 44.2C66.9539 41.67 67.6573 39.1912 68.6001 36.8L69.5001 35.1C69.7392 34.5031 70.0409 33.9333 70.4001 33.4C71.0414 32.2637 71.7424 31.1622 72.5001 30.1C75.5297 25.9293 79.5051 22.5365 84.1001 20.2C88.7314 17.9026 93.8303 16.7048 99.0001 16.7ZM99.0001 16.7C93.8535 16.7295 88.7852 17.9623 84.2001 20.3C79.6051 22.6365 75.6297 26.0293 72.6001 30.2C71.8001 31.2 71.2001 32.4 70.5001 33.4L69.7001 35.2C69.3742 35.7369 69.106 36.3067 68.9001 36.9C67.9573 39.2912 67.2539 41.77 66.8001 44.3C66.7828 44.9376 66.7159 45.5728 66.6001 46.2V48.1C66.5001 49.4 66.6001 50.7 66.6001 52V67.4C66.7001 68.7 66.6001 69.9 66.7001 71.2V73.1L67.0001 75C67.4407 77.5006 68.1446 79.9475 69.1001 82.3L69.9001 84C70.1392 84.5969 70.4409 85.1667 70.8001 85.7C71.4417 86.8039 72.1427 87.8721 72.9001 88.9C75.8991 93.0351 79.8416 96.3949 84.4001 98.7C88.9541 100.915 93.9367 102.11 99.0001 102.2C104.069 102.156 109.062 100.96 113.6 98.7C118.159 96.3949 122.101 93.0351 125.1 88.9C125.857 87.8721 126.559 86.8039 127.2 85.7C127.559 85.1667 127.861 84.5969 128.1 84L128.9 82.3C129.856 79.9475 130.559 77.5006 131 75L131.3 73.1V71.2C131.4 69.9 131.3 68.7 131.4 67.4V52C131.4 50.7 131.5 49.4 131.4 48.1V46.2C131.284 45.5728 131.217 44.9376 131.2 44.3C130.746 41.77 130.043 39.2912 129.1 36.9C128.894 36.3067 128.626 35.7369 128.3 35.2L127.5 33.4C126.8 32.4 126.2 31.2 125.4 30.2C122.371 26.0293 118.395 22.6365 113.8 20.3C109.215 17.9623 104.147 16.7295 99.0001 16.7Z" fill="black"/>
<path d="M98.3999 61.2V65.9C98.4116 66.576 98.2638 67.2452 97.9684 67.8533C97.6731 68.4614 97.2385 68.9913 96.6999 69.4C96.0455 69.9185 95.2349 70.2005 94.3999 70.2C94.3999 70.2 98.3999 75.2 103.4 71.2" fill="white"/>
<path d="M98.4 61.2C98.5 62.1 98.5001 63 98.6001 64C98.7367 64.9603 98.7702 65.9325 98.7 66.9C98.5455 67.9303 98.0531 68.88 97.3 69.6C96.4899 70.2913 95.4649 70.6801 94.4 70.7L94.8 69.9C95.2954 70.4754 95.8674 70.9801 96.5 71.4C97.1958 71.7847 97.9341 72.0868 98.7 72.3C99.4993 72.4161 100.313 72.3821 101.1 72.2L102.3 71.8L103.4 71.2C102.762 71.8023 102.016 72.2774 101.2 72.6C100.391 72.9836 99.4872 73.1226 98.6001 73C97.7221 72.9008 96.8725 72.6289 96.1001 72.2C95.3158 71.7461 94.6072 71.1726 94 70.5L93.3 69.7H94.4C94.8079 69.7021 95.2122 69.6237 95.5897 69.4692C95.9673 69.3148 96.3106 69.0874 96.6001 68.8C97.2889 68.2947 97.7549 67.5419 97.9 66.7C97.9868 66.2724 98.0203 65.8358 98 65.4V64L98.4 61.2Z" fill="black"/>
<path d="M86.8 82C86.8 82 97.2 89.4 110.8 82.4L86.8 82Z" fill="white"/>
<path d="M86.8 82C88.652 82.9071 90.5967 83.6112 92.6001 84.1C94.5936 84.6119 96.6419 84.8805 98.7 84.9C100.787 84.9145 102.869 84.6795 104.9 84.2C106.906 83.7378 108.878 83.1364 110.8 82.4L108 83.9C107.023 84.3267 106.021 84.694 105 85C102.945 85.5578 100.829 85.8601 98.7 85.9C96.5631 85.8689 94.4416 85.5322 92.4 84.9L89.5 83.7C88.551 83.2153 87.6473 82.6463 86.8 82Z" fill="black"/>
<path d="M89.2001 52.7C87.6135 51.7192 85.7924 51.1831 83.9275 51.1479C82.0626 51.1127 80.2225 51.5797 78.6001 52.5" fill="white"/>
<path d="M89.2001 52.7C88.3589 52.3567 87.4888 52.0889 86.6001 51.9C85.7102 51.7342 84.8047 51.6671 83.9001 51.7C83.0287 51.6704 82.1567 51.7375 81.3001 51.9L78.6001 52.5C79.3523 51.9014 80.1966 51.4286 81.1001 51.1C82.0065 50.8199 82.9515 50.6849 83.9001 50.7C84.8911 50.6623 85.879 50.8326 86.8001 51.2C87.7066 51.5049 88.5287 52.0188 89.2001 52.7Z" fill="black"/>
<path d="M84.3999 59.7C85.5045 59.7 86.3999 58.8046 86.3999 57.7C86.3999 56.5954 85.5045 55.7 84.3999 55.7C83.2953 55.7 82.3999 56.5954 82.3999 57.7C82.3999 58.8046 83.2953 59.7 84.3999 59.7Z" fill="black"/>
<path d="M108.1 53.2C109.671 52.2279 111.475 51.6965 113.323 51.6613C115.17 51.6261 116.993 52.0885 118.6 53" fill="white"/>
<path d="M108.1 53.2C108.756 52.4992 109.583 51.9821 110.5 51.7C111.386 51.3318 112.341 51.1612 113.3 51.2C114.249 51.1779 115.195 51.3131 116.1 51.6C117.014 51.9062 117.862 52.381 118.6 53L115.9 52.4C115.044 52.2305 114.172 52.1633 113.3 52.2C112.429 52.167 111.556 52.2341 110.7 52.4C109.808 52.5743 108.936 52.8424 108.1 53.2Z" fill="black"/>
<path d="M112.9 60.2C114.004 60.2 114.9 59.3046 114.9 58.2C114.9 57.0954 114.004 56.2 112.9 56.2C111.795 56.2 110.9 57.0954 110.9 58.2C110.9 59.3046 111.795 60.2 112.9 60.2Z" fill="black"/>
<path d="M66.3 56.7C66.3 56.7 64 30.2 77.5 38.7C92.8 48.3 101.1 55.3 115 44.2C125 36.2 130 39.2 132 59.2C132 59.2 130.5 52.1 134 49.2C134 49.2 149 33.2 141 22.2C135.6 14.7 133 5.19999 115 2.19999C105.1 0.49999 84.5 -1.30001 76 8.19999C67.5 17.7 58.2 14.4 56 23.2C53 35.2 58 42.2 60.5 43.7C64.7 46.2 66.3 56.7 66.3 56.7Z" fill="black"/>
<path d="M198 211.7C197.983 214.744 196.761 217.656 194.6 219.8C193.545 220.879 192.285 221.735 190.894 222.319C189.503 222.903 188.009 223.203 186.5 223.2H11.5C8.45814 223.174 5.54822 221.954 3.39719 219.803C1.24615 217.652 0.0261588 214.742 4.6545e-05 211.7C-0.0202411 192.035 6.59214 172.937 18.7682 157.495C30.9443 142.052 47.9725 131.168 67.1001 126.6C68.8118 126.138 70.5478 125.771 72.3 125.5C73.3927 131.789 76.67 137.49 81.5545 141.599C86.439 145.708 92.6171 147.961 99 147.961C105.383 147.961 111.561 145.708 116.446 141.599C121.33 137.49 124.607 131.789 125.7 125.5C127.452 125.771 129.188 126.138 130.9 126.6C150.028 131.168 167.056 142.052 179.232 157.495C191.408 172.937 198.02 192.035 198 211.7Z" fill="#CC4C4C"/>
<path d="M38.6001 184.7C39.2001 187.8 39.6001 191 39.9001 194.2C40.2001 197.4 40.5001 200.7 40.7001 203.9C40.9001 207.1 41.0001 210.3 40.9001 213.6C40.8798 216.83 40.511 220.049 39.8001 223.2C39.8001 222.4 40.0001 221.6 40.0001 220.8C40.0001 220 40.1001 219.2 40.1001 218.4V213.6C40.0001 210.3 39.9001 207.1 39.7001 203.9L39.2001 194.3L38.6001 184.7Z" fill="black"/>
<path d="M155.5 184.7C155.4 187.9 155.2 191.1 155 194.3L154.4 203.9C154.2 207.1 154.1 210.3 154 213.6V218.4C154 219.2 154.1 220 154.1 220.8L154.4 223.2C153.64 220.057 153.27 216.833 153.3 213.6C153.2 210.3 153.3 207.1 153.4 203.9C153.5 200.7 153.8 197.4 154.2 194.2C154.6 191 154.9 187.8 155.5 184.7Z" fill="black"/>
<path d="M131.7 54.4C131.4 72.6 118 79.2 118 79.2C118 87.2 116 87.2 116 87.2C116.525 84.0542 115.808 80.8272 114 78.2C107 72.2 100 78.2 100 78.2C108 75.2 114 79.2 114 86.2C114 93.2 102 91.2 102 91.2C101.103 90.6308 100.062 90.3286 99 90.3286C97.9376 90.3286 96.8971 90.6308 96 91.2C96 91.2 84 93.2 84 86.2C84 79.2 90 75.2 98 78.2C98 78.2 91 72.2 84 78.2C82.1917 80.8272 81.4746 84.0542 82 87.2C82 87.2 80 87.2 80 79.2C80 79.2 66.6 72.6 66.3 54.4C66.3 54.4 65 74.2 65 80.2C65 86.2 72 104.2 96 109.2C97.9583 109.778 100.042 109.778 102 109.2C126 104.2 133 86.2 133 80.2C133 74.2 131.7 54.4 131.7 54.4Z" fill="black"/>
<path d="M38.6001 184.7C39.2001 187.8 39.6001 191 39.9001 194.2C40.2001 197.4 40.5001 200.7 40.7001 203.9C40.9001 207.1 41.0001 210.3 40.9001 213.6C40.8798 216.83 40.511 220.049 39.8001 223.2C39.8001 222.4 40.0001 221.6 40.0001 220.8C40.0001 220 40.1001 219.2 40.1001 218.4V213.6C40.0001 210.3 39.9001 207.1 39.7001 203.9L39.2001 194.3L38.6001 184.7Z" fill="black"/>
<path d="M155.5 184.7C155.4 187.9 155.2 191.1 155 194.3L154.4 203.9C154.2 207.1 154.1 210.3 154 213.6V218.4C154 219.2 154.1 220 154.1 220.8L154.4 223.2C153.64 220.057 153.27 216.833 153.3 213.6C153.2 210.3 153.3 207.1 153.4 203.9C153.5 200.7 153.8 197.4 154.2 194.2C154.6 191 154.9 187.8 155.5 184.7Z" fill="black"/>
<path d="M118 117.9C120.6 129.2 110 132.2 104 138.2H103.9C103.528 138.461 103.22 138.803 103 139.2L102.3 140.1C101.532 141.032 100.985 142.126 100.7 143.3C99.8877 145.17 99.2516 147.112 98.7999 149.1C98.6999 145.1 97.8999 140.4 95.4999 136.7C90.8999 129.5 76.1999 129.2 78.8999 117.9C81.5999 106.6 62.4999 115.7 67.4999 126.7C72.4999 137.7 79.8999 158 97.4999 158.2C97.1926 163.538 97.3599 168.892 97.9999 174.2C97.9999 174.2 104 188.2 109 174.2C112.8 163.5 113.7 152.4 112.6 146.3C121.8 142.9 125.6 134.9 129.3 126.7C134.3 115.7 115.3 106.7 118 117.9Z" fill="#CC4C4C"/>
<path d="M98 176.2C97.535 173.053 97.2678 169.88 97.2 166.7C97.0328 163.534 97.0662 160.361 97.3 157.2C97.5475 153.999 98.0491 150.822 98.8 147.7C99.5128 144.54 100.838 141.55 102.7 138.9C104.5 137.2 106.3 135.7 108.2 134.2C110.061 132.687 112.033 131.317 114.1 130.1C112.147 131.489 110.277 132.992 108.5 134.6L103.3 139.5C101.636 142.15 100.42 145.055 99.7 148.1C99.3 149.6 99.1 151.1 98.8 152.7C98.5 154.3 98.3 155.8 98.2 157.3C97.9 160.5 97.8 163.6 97.8 166.8C97.8 170 97.8 173 98 176.2Z" fill="black"/>
<path d="M99 148.2C98.7728 146.481 98.4388 144.778 98 143.1C97.4792 141.507 96.8095 139.967 96 138.5C95.2051 137.024 94.1939 135.676 93 134.5C91.7806 133.327 90.4397 132.288 89 131.4C90.6485 131.932 92.1771 132.782 93.5 133.9L94 134.4L94.5 134.8L95.4 135.8C95.9567 136.493 96.4583 137.229 96.9 138C97.7496 139.566 98.3565 141.252 98.7 143C99.1004 144.703 99.202 146.462 99 148.2Z" fill="black"/>
<path d="M69.4999 128.7C68.9163 128.183 68.3808 127.614 67.8999 127L67.1999 126.1C67.0999 125.7 66.8999 125.4 66.7999 125C66.1848 123.505 66.114 121.842 66.5999 120.3L66.9999 119.1L67.5999 118.1C67.9999 117.4 68.5999 116.9 68.9999 116.2C69.3999 115.5 70.1999 115.1 70.7999 114.7L72.5999 113.3H72.6999C73.8164 112.751 75.059 112.509 76.2999 112.6C76.9728 112.656 77.6071 112.938 78.0999 113.4C78.4931 113.838 78.7986 114.347 78.9999 114.9C78.7459 114.383 78.368 113.936 77.8999 113.6C77.4185 113.298 76.8674 113.126 76.2999 113.1L74.5999 113.3C74.0736 113.472 73.57 113.707 73.0999 114L71.3999 115.4L69.7999 116.9C68.7598 117.941 67.9729 119.207 67.4999 120.6C66.9843 121.942 66.9142 123.415 67.2999 124.8C67.7554 126.238 68.5046 127.566 69.4999 128.7Z" fill="black"/>
<path d="M127.2 128.7C128.167 127.562 128.882 126.233 129.3 124.8C129.667 123.419 129.633 121.962 129.2 120.6C128.688 119.226 127.906 117.968 126.9 116.9L125.3 115.4L123.5 114H123.6L122 113.3L120.4 113.1C119.83 113.111 119.275 113.285 118.8 113.6C118.332 113.936 117.954 114.383 117.7 114.9C117.864 114.33 118.174 113.813 118.6 113.4C119.066 112.958 119.662 112.678 120.3 112.6C120.935 112.534 121.576 112.567 122.2 112.7L124 113.3L125.9 114.7C126.5 115.1 127 115.7 127.6 116.2C128.2 116.7 128.7 117.4 129.1 118.1L129.6 119.1L130.1 120.3C130.532 121.848 130.462 123.494 129.9 125C129.775 125.384 129.607 125.753 129.4 126.1L128.8 127C128.319 127.614 127.784 128.183 127.2 128.7Z" fill="black"/>
<path d="M97.5 180.7C98.3238 180.264 99.1966 179.929 100.1 179.7C101.022 179.452 101.957 179.252 102.9 179.1C104.796 178.884 106.713 178.917 108.6 179.2L108 179.7V175.7L108.4 176.1L105.7 175.8H103L100.2 176.1C99.2813 176.204 98.3763 176.405 97.5 176.7C98.3238 176.264 99.1966 175.929 100.1 175.7C101.022 175.452 101.957 175.252 102.9 175.1C104.796 174.884 106.713 174.917 108.6 175.2H109V180.2H108.4L105.7 179.9H103L100.2 180.2C99.285 180.272 98.38 180.439 97.5 180.7Z" fill="black"/>
<path d="M104.5 146.7C104.616 147.399 104.582 148.115 104.4 148.8C104.163 149.461 103.862 150.098 103.5 150.7C103.344 150.355 103.275 149.978 103.3 149.6C103.278 149.23 103.312 148.86 103.4 148.5C103.566 147.799 103.952 147.168 104.5 146.7Z" fill="black"/>
<path d="M103.5 155.7C103.616 156.399 103.582 157.115 103.4 157.8C103.163 158.461 102.862 159.098 102.5 159.7C102.344 159.355 102.275 158.978 102.3 158.6C102.278 158.23 102.312 157.86 102.4 157.5C102.566 156.799 102.952 156.168 103.5 155.7Z" fill="black"/>
<path d="M103.5 164.7C103.616 165.399 103.582 166.115 103.4 166.8C103.163 167.461 102.862 168.098 102.5 168.7C102.344 168.355 102.275 167.978 102.3 167.6C102.278 167.23 102.312 166.86 102.4 166.5C102.566 165.799 102.952 165.168 103.5 164.7Z" fill="black"/>
</svg>
